Patient4_TMGait_0pt8_01_left_06_GRF.mot
version=1
nRows=33
nColumns=19
inDegrees=no
endheader
time	F1x	F1y	F1z	M1x	M1y	M1z	F2x	F2y	F2z	M2x	M2y	M2z	EC1x	EC1y	EC1z	EC2x	EC2y	EC2z
5.87	-4.1618	-1.9991	-8.7099	1.9774	4.3264	-3.7595	-43.7178	722.515	-51.0613	272.557	77.2261	806.6063	-0.0592	0.0182	-0.0073	-0.0462	0.0165	0.9585
5.8812	-2.9267	-0.56475	-5.8743	1.1058	2.7764	-1.5072	-41	719.8744	-53.8303	272.1096	77.8312	799.2258	-0.0592	0.0182	-0.0073	-0.0462	0.0165	0.9585
5.8924	-1.8717	0.66156	-3.4641	0.34854	1.4862	0.41064	-37.8081	717.6693	-55.982	271.766	77.6342	791.6392	-0.0592	0.0182	-0.0073	-0.0462	0.0165	0.9585
5.9036	-1.0593	1.6228	-1.6112	-0.24975	0.50229	1.8883	-34.1972	716.3584	-57.4067	271.6768	76.6302	784.4677	-0.0592	0.0182	-0.0073	-0.0462	0.0165	0.9585
5.9149	-0.49767	2.3197	-0.31931	-0.6874	-0.18431	2.9265	-30.2295	716.3542	-58.1402	272.0064	74.9205	778.249	-0.0592	0.0182	-0.0073	-0.0462	0.0165	0.9585
5.9261	-0.16568	2.7687	0.50564	-0.98032	-0.63479	3.575	-25.9529	717.9608	-58.3222	272.8928	72.6774	773.3694	-0.0592	0.0182	-0.0073	-0.0462	0.0165	0.9585
5.9373	-0.011826	3.0067	0.96466	-1.154	-0.90093	3.9134	-21.4123	721.3782	-58.0922	274.4352	70.0531	770.0915	-0.0592	0.0182	-0.0073	-0.0462	0.0165	0.9585
5.9485	-0.0004737	3.0662	1.1763	-1.2304	-1.0523	3.9971	-16.6635	726.6643	-57.5884	276.6706	67.1868	768.5164	-0.0592	0.0182	-0.0073	-0.0462	0.0165	0.9585
5.9597	-0.092024	2.9827	1.2257	-1.229	-1.1338	3.8792	-11.7956	733.6651	-56.9314	279.5441	64.2013	768.5387	-0.0592	0.0182	-0.0073	-0.0462	0.0165	0.9585
5.9709	-0.26165	2.7496	1.1986	-1.1544	-1.2007	3.5631	-6.9016	741.9821	-56.212	282.8974	61.1907	769.8226	-0.0592	0.0182	-0.0073	-0.0462	0.0165	0.9585
5.9821	-0.4898	2.3523	1.1387	-1.0052	-1.2731	3.0338	-2.0907	751.0047	-55.5144	286.474	58.2516	771.8445	-0.0592	0.0182	-0.0073	-0.0462	0.0165	0.9585
5.9934	-0.75379	1.7394	1.0874	-0.76556	-1.3708	2.2393	2.5539	759.9182	-54.8876	289.9334	55.4392	773.8749	-0.0592	0.0182	-0.0073	-0.0462	0.0165	0.9585
6.0046	-1.0284	0.84265	1.0545	-0.4108	-1.4856	1.101	6.9619	767.8452	-54.3783	292.9027	52.8006	775.1411	-0.0592	0.0182	-0.0073	-0.0462	0.0165	0.9585
6.0158	-1.269	-0.39884	1.0411	0.082703	-1.5984	-0.45507	11.1079	773.9739	-53.9846	295.0375	50.3252	774.9183	-0.0592	0.0182	-0.0073	-0.0462	0.0165	0.9585
6.027	-1.4037	-2.0106	1.0307	0.72267	-1.6606	-2.4662	14.9807	777.6669	-53.7123	296.0672	48.013	772.642	-0.0592	0.0182	-0.0073	-0.0462	0.0165	0.9585
6.0382	-1.33	-3.9365	0.9955	1.4835	-1.598	-4.871	18.5869	778.5056	-53.571	295.818	45.8733	767.9377	-0.0592	0.0182	-0.0073	-0.0462	0.0165	0.9585
6.0494	-0.89515	-5.9862	0.88781	2.2855	-1.2937	-7.4424	21.8756	776.3481	-53.5947	294.2373	43.9639	760.7021	-0.0592	0.0182	-0.0073	-0.0462	0.0165	0.9585
6.0606	0.064936	-7.7437	0.64138	2.9627	-0.60076	-9.6733	24.7854	771.349	-53.8335	291.4065	42.3739	751.1073	-0.0592	0.0182	-0.0073	-0.0462	0.0165	0.9585
6.0719	1.7478	-8.5084	0.17564	3.239	0.6557	-10.7057	27.2362	763.9558	-54.3009	287.5429	41.1685	739.5897	-0.0592	0.0182	-0.0073	-0.0462	0.0165	0.9585
6.0831	4.3235	-7.2032	-0.59867	2.6974	2.6481	-9.2003	29.2272	754.8245	-54.9517	282.9635	40.3309	726.7427	-0.0592	0.0182	-0.0073	-0.0462	0.0165	0.9585
6.0943	7.8948	-2.3868	-1.7537	0.77383	5.4972	-3.3835	30.8313	744.6627	-55.6803	278.0133	39.7612	713.1946	-0.0592	0.0182	-0.0073	-0.0462	0.0165	0.9585
6.1055	12.3752	7.735	-3.3255	-3.2289	9.199	8.9811	32.2132	734.0353	-56.3559	272.9773	39.2971	699.4134	-0.0592	0.0182	-0.0073	-0.0462	0.0165	0.9585
6.1167	17.3867	25.1127	-5.2461	-10.0543	13.5094	30.2939	33.6065	723.1878	-56.8607	267.9997	38.7534	685.538	-0.0592	0.0182	-0.0073	-0.0462	0.0165	0.9585
6.1279	22.0502	51.4873	-7.3232	-20.3502	17.8395	62.7155	35.2581	711.9054	-57.1152	263.0261	37.9618	671.2828	-0.0592	0.0182	-0.0073	-0.0462	0.0165	0.9585
6.1391	24.8693	87.7406	-9.1357	-34.4293	21.0897	107.3715	37.3313	699.469	-57.0808	257.7913	36.8149	655.9455	-0.0592	0.0182	-0.0073	-0.0462	0.0165	0.9585
6.1504	23.8648	133.5893	-10.1105	-52.1462	21.8195	163.9966	39.8704	684.7026	-56.668	251.8529	35.2095	638.4555	-0.0592	0.0182	-0.0073	-0.0462	0.0165	0.9585
6.1616	18.0329	188.0962	-9.5945	-73.0809	18.8483	231.5069	42.7615	666.1607	-55.7211	244.6683	33.0471	617.5618	-0.0592	0.0182	-0.0073	-0.0462	0.0165	0.9585
6.1728	7.8759	249.6544	-6.9801	-96.5279	11.6072	307.8944	45.7493	642.3616	-54.0474	235.6829	30.2539	592.018	-0.0592	0.0182	-0.0073	-0.0462	0.0165	0.9585
6.184	-5.3046	314.6449	-1.6432	-121.044	-0.13717	388.4848	48.461	611.9977	-51.4605	224.4046	26.8106	560.7814	-0.0592	0.0182	-0.0073	-0.0462	0.0165	0.9585
6.1952	-19.732	377.9877	6.5003	-144.721	-15.6931	466.6602	50.4657	574.0861	-47.8756	210.4585	22.8142	523.1115	-0.0592	0.0182	-0.0073	-0.0462	0.0165	0.9585
6.2064	-33.443	435.9447	16.3583	-166.2217	-32.9568	537.4378	51.2974	528.2687	-43.2782	193.6899	18.4327	478.825	-0.0592	0.0182	-0.0073	-0.0462	0.0165	0.9585
6.2176	-45.4482	487.8257	26.7127	-185.3487	-49.9939	599.8327	50.5706	474.9984	-37.813	174.2354	13.9413	428.434	-0.0592	0.0182	-0.0073	-0.0462	0.0165	0.9585
6.2289	-55.3136	534.742	36.2894	-202.6067	-65.1526	655.1511	48.0006	415.6683	-31.7637	152.571	9.6827	373.28	-0.0592	0.0182	-0.0073	-0.0462	0.0165	0.9585
